<svg data-v-decfdd8a="" version="1.0" xmlns="http://www.w3.org/2000/svg" xmlns:xlink="http://www.w3.org/1999/xlink" width="100%" height="100%" viewBox="0 0 340.000000 250.000000" preserveAspectRatio="xMidYMid meet" color-interpolation-filters="sRGB" style="margin: auto;"> <rect data-v-decfdd8a="" x="0" y="0" width="100%" height="100%" fill="#fff" fill-opacity="0" class="background"></rect> <rect data-v-decfdd8a="" x="0" y="0" width="100%" height="100%" fill="url(#watermark)" fill-opacity="1" class="watermarklayer"></rect> <g data-v-decfdd8a="" fill="white" class="icon-text-wrapper icon-svg-group iconsvg" transform="translate(84.26499938964844,78.87218094183136)"><g class="iconsvg-imagesvg" transform="matrix(1,0,0,1,55.73500061035156,0)" opacity="1"><g><rect fill="white" fill-opacity="0" stroke-width="2" x="0" y="0" width="60" height="60.04563468235859" class="image-rect"></rect> <svg x="0" y="0" width="60" height="60.04563468235859" filtersec="colorsb4087089330" class="image-svg-svg primary" style="overflow: visible;"><svg xmlns="http://www.w3.org/2000/svg" viewBox="0.0186874121427536 0.03168483451008797 71.8552474975586 71.91011047363281"><title>资源 73</title><path d="M71.85 12.61c0 2.6.05 5.21 0 7.81-.09 3.42-2.1 4.7-5.32 4.78-5.32.13-7.43-.78-7.59-4.23-.26-5.67-.21-11.36 0-17 .1-2.56 1.76-4 4.53-3.93h3.55c3.35-.15 4.72 1.74 4.82 4.79.07 2.57.01 5.17.01 7.78zM71.86 41.53v4.27c0 5.63-1.08 6.68-6.6 6.67-5.29 0-6.45-1.15-6.47-6.47 0-3.43-.07-6.87 0-10.31.11-3.79 1.49-5.11 5.18-5.19 7.16-.16 7.86.53 7.87 7.83z" fill="#4c88ef"></path><path d="M13 60.69c0 1.18-.07 2.37 0 3.55.63 8.1-2.69 7.89-9.93 7.18-2.2-.21-3-2.2-3-4.24C0 62.93 0 58.67.08 54.43c.09-3.1 1.76-4.77 5-4.63h2.84c3.73.09 5 1.36 5.06 5.21.02 1.9.02 3.79.02 5.68z" fill="#e54c41"></path><path d="M19.6 44v-2.48c0-5.88 1-6.86 6.81-6.82 5.08 0 6.2 1.15 6.25 6.34v7.82c-.05 3.15-1.55 4.87-4.83 4.79h-3.2c-3.61-.14-4.85-1.37-5-5-.08-1.65-.03-3.15-.03-4.65z" fill="#f9be15"></path><path d="M52.14 62.47v2.84c0 5.46-.93 6.36-6.42 6.36s-6.35-.89-6.37-6.42c0-2.6-.05-5.21 0-7.81.08-2.83 1.5-4.4 4.44-4.37h3.2c3.88.08 5 1.2 5.11 5.13.07 1.42.04 2.8.04 4.27z" fill="#3fa95b"></path><path d="M71.85 64.66c0 6.14-.82 7-6.52 7s-6.55-1-6.54-7c0-5.86 1.05-6.93 6.73-6.92 5.33 0 6.33 1.09 6.33 6.92z" fill="#4c88ef"></path><path d="M26.23 58.71c5.35 0 6.42 1.08 6.42 6.47S31.34 72 26 71.94s-6.43-1.27-6.43-6.56c.02-5.52 1.18-6.68 6.66-6.67z" fill="#f8be18"></path><path d="M52.15 40.81c0 6.16-5.37 9.21-10.68 6.32a4 4 0 0 1-2-3.14c-.13-.93 0-1.89-.1-2.83-.56-8.43 2.93-8 9.85-7.16 3.67.47 2.78 4.29 2.93 6.81zM45.91 15.56c5.37 0 6.27.94 6.25 6.52 0 5.21-1 6.24-6.22 6.24-5.7 0-6.61-.9-6.59-6.56.01-5.34.93-6.2 6.56-6.2z" fill="#3fa95b"></path></svg></svg> <!----></g></g> <g transform="translate(0,67.04563522338867)"><g data-gra="path-name" fill-rule="" class="tp-name iconsvg-namesvg" opacity="1" transform="matrix(1,0,0,1,0,0)"><g transform="scale(1)"><g><path d="M19.17 0C19.47 0 19.77-0.17 19.77-0.53 19.9-1.49 21.12-17 21.12-20.23 21.12-22.24 20.66-23.43 17.79-23.43L15.97-23.43C15.58-23.43 15.41-23.3 15.41-23.13 15.41-19.24 15.51-13.27 15.51-8.05 14.16-11.12 13.6-12.24 10.36-20.39 9.74-21.98 9.17-23.43 6.24-23.43L3.6-23.43C3.2-23.43 3.07-23.3 3.07-22.94 3-20.82 2.87-19.11 2.34-12.44 2.01-8.22 1.68-4.03 1.68-2.94 1.68-1.02 2.64 0 5.12 0L6.93 0C7.33 0 7.46-0.2 7.46-0.49 7.39-5.21 7.26-9.97 7.23-14.69 9.27-10.33 11.22-6.07 13.5-1.39 13.89-0.59 14.69 0 16.47 0ZM31.28 0.33C39.57 0.33 41.15-6.6 41.15-10.76 41.15-15.64 38.94-18.48 33.4-18.48 25.84-18.48 23.5-13.23 23.5-7.92 23.5-3.33 25.25 0.33 31.28 0.33ZM32.84-14.09C34.78-14.09 35.54-12.74 35.54-10.56 35.54-8.51 34.88-4.06 31.78-4.06 30.06-4.06 29.11-5.38 29.11-8.28 29.11-10.16 29.5-14.09 32.84-14.09ZM52.4-22.94C52.34-21.55 52.4-20.66 51.68-11.91 51.32-7.69 51.05-4.06 51.05-2.94 51.05 0.17 53.99 0.33 58.31 0.33 67.65 0.33 70.19-6.67 70.19-13.83 70.19-20.86 67.75-23.73 60.26-23.73 58.77-23.73 55.94-23.43 52.97-23.43 52.73-23.43 52.44-23.3 52.4-22.94ZM58.54-4.88C58.21-4.88 57.65-4.88 56.99-4.98 57.32-9.21 57.75-15.28 57.88-18.51 58.94-18.58 59.7-18.64 60.16-18.64 63.36-18.64 64.19-16.83 64.19-13.1 64.19-9.64 63.46-4.88 58.54-4.88ZM77.29 0C77.85 0 77.98-0.13 78.01-0.66 78.77-10.13 79.07-13.86 79.07-15.15 79.07-17.03 78.41-18.15 75.7-18.15L74.42-18.15C74.12-18.15 73.99-18.15 73.89-18.05 73.79-17.95 73.76-17.72 73.72-17.19 73.03-7.49 72.73-4.49 72.73-3.14 72.73-1.12 73.39 0 76.1 0ZM73.76-22.04C73.76-20.63 74.68-19.93 76.43-19.93 78.74-19.93 79.99-21.15 79.99-22.77 79.99-24.06 79.17-24.88 77.29-24.88 75.14-24.88 73.76-23.79 73.76-22.04ZM89.66-18.48C86.03-18.48 82.1-16.9 82.1-12.38 82.1-6.24 89.33-7.33 89.33-4.82 89.33-3.89 88.31-3.73 87.22-3.73 84.31-3.73 83.95-4.95 82.86-4.95 81.58-4.95 80.95-3.2 80.95-2.44 80.95-0.36 85.47 0.33 87.94 0.33 92.4 0.33 94.68-1.91 94.68-5.08 94.68-10.99 86.82-9.97 86.82-12.71 86.82-13.6 87.65-14.26 88.87-14.26 90.68-14.26 90.75-12.84 90.78-12.04 90.78-11.68 90.95-11.58 91.58-11.58 93.85-11.58 95.11-12.64 95.11-14.55 95.11-16.83 93.36-18.48 89.66-18.48ZM106.33-13.7C108.31-13.7 108.73-14.59 108.83-15.91L108.97-17.69C108.97-18.02 108.77-18.15 108.44-18.15L104.97-18.15C105.04-19.01 105.07-19.67 105.07-20.1 105.07-21.68 104.48-23 102.63-23L101.67-23C101.08-23 100.09-19.73 99.46-18.15 97.42-18.15 97.15-16.96 97.09-15.84L96.99-14.16C96.99-13.86 97.02-13.7 97.35-13.7L99.1-13.7C98.64-7.46 98.34-5.51 98.34-4.16 98.34-1.16 99.83 0.33 102.99 0.33 106.19 0.33 107.38-1.19 107.38-3.6 107.38-4.85 107.05-5.08 106.76-5.08 106.16-5.08 105.8-4.22 104.81-4.22 104.21-4.22 103.95-4.52 103.95-5.64 103.95-6.9 104.28-10.4 104.58-13.7ZM121.31-10.26C123.62-10.26 125.1-12.28 125.1-14.65 125.1-17.29 123.22-18.48 121.51-18.48 120.09-18.48 118.07-17.69 117.05-15.64 116.89-17 116.16-18.15 113.65-18.15L112.37-18.15C112-18.15 111.71-17.82 111.67-17.19 110.98-7.49 110.68-4.49 110.68-3.14 110.68-1.12 111.34 0 114.05 0L115.24 0C115.6 0 115.96-0.23 115.96-0.66 115.96-1.42 116.39-6.27 116.59-9.08 116.82-12.28 117.68-13.89 118.9-13.89 119.69-13.89 119.89-13.2 119.89-12.24 119.89-11.71 119.82-11.25 119.82-10.69 119.82-10.36 120.81-10.26 121.31-10.26ZM125.33-4.06C125.33-0.86 127.48 0.33 130.12 0.33 132.86 0.33 134.44-1.02 135.5-2.54 135.83-0.76 136.82 0.33 138.93 0.33 141.97 0.33 142.89-2.01 142.89-3.96 142.89-4.65 140.94-3.93 140.94-6.14 140.94-7.13 141.5-11.68 141.5-12.67 141.5-16.37 139.43-18.48 134.54-18.48 129.49-18.48 126.98-16.24 126.98-13.46 126.98-11.71 128.11-10.92 130.35-10.92 131.01-10.92 131.27-10.99 131.37-11.38 131.77-12.97 132.07-14.06 133.91-14.06 135.56-14.06 135.96-13.17 135.96-11.75 135.96-11.29 135.93-10.99 135.89-10.53 129-10.36 125.33-7.99 125.33-4.06ZM135.6-7.82C135.4-5.31 133.95-4.06 132.53-4.06 131.8-4.06 131.01-4.39 131.01-5.41 131.01-7.16 133.29-7.82 135.6-7.82ZM153.22-4.06C151.07-4.06 150.12-5.12 150.12-8.25 150.12-10 150.41-14.09 153.15-14.09 154.64-14.09 154.64-12.87 154.67-10.72 154.67-10.33 154.87-10.26 155.53-10.26 158.24-10.26 159.82-11.35 159.82-13.73 159.82-16.37 157.87-18.48 153.58-18.48 145.66-18.48 144.51-11.32 144.51-7.92 144.51-1.49 148.7 0.33 152.03 0.33 155.07 0.33 156.98-1.39 157.38-1.85 157.81-2.34 158.43-4.19 158.43-4.79 158.43-5.41 158.14-5.78 157.67-5.78 156.92-5.78 155.79-4.06 153.22-4.06ZM170.51-13.7C172.49-13.7 172.92-14.59 173.02-15.91L173.15-17.69C173.15-18.02 172.95-18.15 172.62-18.15L169.16-18.15C169.22-19.01 169.26-19.67 169.26-20.1 169.26-21.68 168.66-23 166.82-23L165.86-23C165.26-23 164.27-19.73 163.65-18.15 161.6-18.15 161.34-16.96 161.27-15.84L161.17-14.16C161.17-13.86 161.21-13.7 161.54-13.7L163.28-13.7C162.82-7.46 162.53-5.51 162.53-4.16 162.53-1.16 164.01 0.33 167.18 0.33 170.38 0.33 171.57-1.19 171.57-3.6 171.57-4.85 171.24-5.08 170.94-5.08 170.35-5.08 169.98-4.22 168.99-4.22 168.4-4.22 168.14-4.52 168.14-5.64 168.14-6.9 168.47-10.4 168.76-13.7Z" transform="translate(-1.6800000667572021, 24.8799991607666)"></path></g> <!----> <!----> <!----> <!----> <!----> <!----> <!----></g></g> <!----></g></g><defs v-gra="od"></defs></svg>